<mxfile host="app.diagrams.net" modified="2024-04-11T04:27:22.631Z" agent="Mozilla/5.0 (Windows NT 10.0; Win64; x64) AppleWebKit/537.36 (KHTML, like Gecko) Chrome/121.0.0.0 Safari/537.36 OPR/107.0.0.0" etag="OmLSgSgr302oSJqMeU4J" version="24.2.3" type="github">
  <diagram id="C5RBs43oDa-KdzZeNtuy" name="Page-1">
    <mxGraphModel dx="961" dy="528" grid="1" gridSize="10" guides="1" tooltips="1" connect="1" arrows="1" fold="1" page="1" pageScale="1" pageWidth="827" pageHeight="1169" math="0" shadow="0">
      <root>
        <mxCell id="WIyWlLk6GJQsqaUBKTNV-0" />
        <mxCell id="WIyWlLk6GJQsqaUBKTNV-1" parent="WIyWlLk6GJQsqaUBKTNV-0" />
        <mxCell id="AJ5nvlJKUEabTEPR9Sj0-8" value="" style="edgeStyle=orthogonalEdgeStyle;rounded=0;orthogonalLoop=1;jettySize=auto;html=1;" edge="1" parent="WIyWlLk6GJQsqaUBKTNV-1" source="AJ5nvlJKUEabTEPR9Sj0-0" target="AJ5nvlJKUEabTEPR9Sj0-1">
          <mxGeometry relative="1" as="geometry" />
        </mxCell>
        <mxCell id="AJ5nvlJKUEabTEPR9Sj0-0" value="INICIO" style="ellipse;whiteSpace=wrap;html=1;" vertex="1" parent="WIyWlLk6GJQsqaUBKTNV-1">
          <mxGeometry x="354" y="10" width="120" height="50" as="geometry" />
        </mxCell>
        <mxCell id="AJ5nvlJKUEabTEPR9Sj0-9" value="" style="edgeStyle=orthogonalEdgeStyle;rounded=0;orthogonalLoop=1;jettySize=auto;html=1;" edge="1" parent="WIyWlLk6GJQsqaUBKTNV-1" source="AJ5nvlJKUEabTEPR9Sj0-1" target="AJ5nvlJKUEabTEPR9Sj0-2">
          <mxGeometry relative="1" as="geometry" />
        </mxCell>
        <mxCell id="AJ5nvlJKUEabTEPR9Sj0-1" value="NUM1" style="shape=parallelogram;perimeter=parallelogramPerimeter;whiteSpace=wrap;html=1;fixedSize=1;" vertex="1" parent="WIyWlLk6GJQsqaUBKTNV-1">
          <mxGeometry x="354" y="80" width="120" height="30" as="geometry" />
        </mxCell>
        <mxCell id="AJ5nvlJKUEabTEPR9Sj0-10" value="" style="edgeStyle=orthogonalEdgeStyle;rounded=0;orthogonalLoop=1;jettySize=auto;html=1;" edge="1" parent="WIyWlLk6GJQsqaUBKTNV-1" source="AJ5nvlJKUEabTEPR9Sj0-2" target="AJ5nvlJKUEabTEPR9Sj0-3">
          <mxGeometry relative="1" as="geometry" />
        </mxCell>
        <mxCell id="AJ5nvlJKUEabTEPR9Sj0-2" value="NUM2" style="shape=parallelogram;perimeter=parallelogramPerimeter;whiteSpace=wrap;html=1;fixedSize=1;" vertex="1" parent="WIyWlLk6GJQsqaUBKTNV-1">
          <mxGeometry x="354" y="130" width="120" height="30" as="geometry" />
        </mxCell>
        <mxCell id="AJ5nvlJKUEabTEPR9Sj0-11" value="" style="edgeStyle=orthogonalEdgeStyle;rounded=0;orthogonalLoop=1;jettySize=auto;html=1;" edge="1" parent="WIyWlLk6GJQsqaUBKTNV-1" source="AJ5nvlJKUEabTEPR9Sj0-3" target="AJ5nvlJKUEabTEPR9Sj0-4">
          <mxGeometry relative="1" as="geometry" />
        </mxCell>
        <mxCell id="AJ5nvlJKUEabTEPR9Sj0-3" value="NUM3" style="shape=parallelogram;perimeter=parallelogramPerimeter;whiteSpace=wrap;html=1;fixedSize=1;" vertex="1" parent="WIyWlLk6GJQsqaUBKTNV-1">
          <mxGeometry x="354" y="180" width="120" height="30" as="geometry" />
        </mxCell>
        <mxCell id="AJ5nvlJKUEabTEPR9Sj0-13" value="" style="edgeStyle=orthogonalEdgeStyle;rounded=0;orthogonalLoop=1;jettySize=auto;html=1;" edge="1" parent="WIyWlLk6GJQsqaUBKTNV-1" source="AJ5nvlJKUEabTEPR9Sj0-4" target="AJ5nvlJKUEabTEPR9Sj0-12">
          <mxGeometry relative="1" as="geometry" />
        </mxCell>
        <mxCell id="AJ5nvlJKUEabTEPR9Sj0-4" value="NUM4" style="shape=parallelogram;perimeter=parallelogramPerimeter;whiteSpace=wrap;html=1;fixedSize=1;" vertex="1" parent="WIyWlLk6GJQsqaUBKTNV-1">
          <mxGeometry x="354" y="230" width="120" height="30" as="geometry" />
        </mxCell>
        <mxCell id="AJ5nvlJKUEabTEPR9Sj0-15" value="" style="edgeStyle=orthogonalEdgeStyle;rounded=0;orthogonalLoop=1;jettySize=auto;html=1;" edge="1" parent="WIyWlLk6GJQsqaUBKTNV-1" source="AJ5nvlJKUEabTEPR9Sj0-12" target="AJ5nvlJKUEabTEPR9Sj0-14">
          <mxGeometry relative="1" as="geometry" />
        </mxCell>
        <mxCell id="AJ5nvlJKUEabTEPR9Sj0-12" value="SUMA := NUM1 + NUM2 + NUM3 + NUM4" style="rounded=0;whiteSpace=wrap;html=1;" vertex="1" parent="WIyWlLk6GJQsqaUBKTNV-1">
          <mxGeometry x="260" y="280" width="310" height="40" as="geometry" />
        </mxCell>
        <mxCell id="AJ5nvlJKUEabTEPR9Sj0-17" value="" style="edgeStyle=orthogonalEdgeStyle;rounded=0;orthogonalLoop=1;jettySize=auto;html=1;" edge="1" parent="WIyWlLk6GJQsqaUBKTNV-1" source="AJ5nvlJKUEabTEPR9Sj0-14" target="AJ5nvlJKUEabTEPR9Sj0-16">
          <mxGeometry relative="1" as="geometry" />
        </mxCell>
        <mxCell id="AJ5nvlJKUEabTEPR9Sj0-14" value="PROMEDIO:= SUMA(DIV) 4" style="rounded=0;whiteSpace=wrap;html=1;" vertex="1" parent="WIyWlLk6GJQsqaUBKTNV-1">
          <mxGeometry x="259" y="340" width="310" height="40" as="geometry" />
        </mxCell>
        <mxCell id="AJ5nvlJKUEabTEPR9Sj0-19" value="" style="edgeStyle=orthogonalEdgeStyle;rounded=0;orthogonalLoop=1;jettySize=auto;html=1;" edge="1" parent="WIyWlLk6GJQsqaUBKTNV-1" source="AJ5nvlJKUEabTEPR9Sj0-16" target="AJ5nvlJKUEabTEPR9Sj0-18">
          <mxGeometry relative="1" as="geometry" />
        </mxCell>
        <mxCell id="AJ5nvlJKUEabTEPR9Sj0-16" value="SUMA&lt;div&gt;PROMEDIO&lt;/div&gt;" style="shape=document;whiteSpace=wrap;html=1;boundedLbl=1;" vertex="1" parent="WIyWlLk6GJQsqaUBKTNV-1">
          <mxGeometry x="355" y="400" width="120" height="50" as="geometry" />
        </mxCell>
        <mxCell id="AJ5nvlJKUEabTEPR9Sj0-18" value="FIN" style="ellipse;whiteSpace=wrap;html=1;" vertex="1" parent="WIyWlLk6GJQsqaUBKTNV-1">
          <mxGeometry x="354" y="470" width="120" height="40" as="geometry" />
        </mxCell>
      </root>
    </mxGraphModel>
  </diagram>
</mxfile>
